<svg width="367" height="341" viewBox="0 0 367 341" fill="none" xmlns="http://www.w3.org/2000/svg">
<g filter="url(#filter0_dd_133_304)">
<rect x="12" y="12" width="343" height="317" rx="5" fill="white"/>
<path d="M208.353 210.025C209.469 210.801 212.477 211.331 212.484 211.331C212.49 211.331 212.231 209.243 212.194 209.111C211.815 207.61 210.188 204.923 208.447 204.816C208.158 204.805 207.87 204.856 207.602 204.964C207.334 205.072 207.092 205.236 206.891 205.444C206.691 205.653 206.536 205.901 206.438 206.173C206.34 206.445 206.301 206.735 206.322 207.023C206.373 208.247 207.4 209.357 208.353 210.025Z" fill="#263238"/>
<path d="M207.653 218.905C208.914 219.346 211.714 219.106 211.941 219.081C212.077 220.699 212.319 222.307 212.666 223.893C212.868 224.82 213.095 225.741 213.335 226.668C213.165 226.264 213.007 225.899 212.975 225.855C212.212 224.499 209.936 222.342 208.227 222.701C207.945 222.768 207.681 222.893 207.451 223.069C207.221 223.244 207.031 223.466 206.893 223.721C206.755 223.975 206.672 224.255 206.65 224.544C206.627 224.832 206.666 225.122 206.763 225.394C207.129 226.561 208.416 227.362 209.507 227.753C210.598 228.144 213.032 227.986 213.675 227.936C213.77 228.295 213.858 228.648 213.959 229.001C214.426 230.698 214.899 232.388 215.309 234.047C215.46 234.633 215.58 235.22 215.706 235.806C215.548 235.447 215.416 235.144 215.391 235.1C214.628 233.75 212.351 231.587 210.642 231.947C210.361 232.014 210.097 232.14 209.868 232.316C209.639 232.491 209.449 232.714 209.311 232.967C209.173 233.221 209.09 233.501 209.067 233.789C209.044 234.078 209.082 234.367 209.179 234.64C209.545 235.813 210.831 236.607 211.928 236.998C213.026 237.389 215.214 237.25 215.977 237.194C216.085 237.824 216.192 238.398 216.274 238.991C216.318 239.395 216.387 239.779 216.412 240.189C216.438 240.599 216.469 240.99 216.501 241.388C216.532 242.151 216.564 242.939 216.576 243.683C216.576 244.207 216.576 244.699 216.576 245.197C216.438 244.61 216.141 243.462 216.11 243.368C215.555 241.917 213.631 239.439 211.891 239.527C211.602 239.55 211.322 239.634 211.068 239.773C210.814 239.912 210.593 240.102 210.418 240.333C210.243 240.563 210.118 240.828 210.053 241.11C209.987 241.391 209.981 241.684 210.036 241.968C210.219 243.179 211.373 244.169 212.395 244.717C213.518 245.348 216.242 245.518 216.576 245.537C216.576 246.363 216.576 247.164 216.576 247.921C216.545 249.46 216.482 250.841 216.406 252.033L217.522 252.254C217.573 250.993 217.611 249.561 217.611 247.934C217.611 247.095 217.611 246.2 217.611 245.285C218.463 245.122 219.305 244.911 220.133 244.654C220.821 245.771 222.839 247.328 223.097 247.524C222.643 248.211 222.196 248.88 221.767 249.498C220.941 250.683 220.177 251.73 219.49 252.651L220.688 252.891C221.281 252.058 221.95 251.119 222.618 250.084C223.078 249.384 223.564 248.634 224.05 247.852C224.359 247.984 226.881 249.044 228.155 249.012C229.316 249.012 230.791 248.621 231.504 247.625C231.68 247.396 231.806 247.132 231.874 246.851C231.942 246.57 231.95 246.278 231.898 245.994C231.845 245.71 231.734 245.44 231.57 245.201C231.407 244.963 231.195 244.762 230.949 244.61C229.436 243.74 226.604 245.09 225.45 246.136C225.387 246.193 224.725 246.944 224.315 247.429L224.907 246.471C225.305 245.84 225.683 245.153 226.093 244.44L226.654 243.38C226.85 243.027 227.014 242.636 227.197 242.258C227.6 241.381 227.966 240.467 228.319 239.54C228.887 239.887 230.936 241.097 232.103 241.243C233.27 241.388 234.758 241.243 235.616 240.379C235.826 240.179 235.991 239.938 236.101 239.67C236.211 239.402 236.263 239.114 236.255 238.825C236.246 238.536 236.176 238.251 236.049 237.991C235.923 237.73 235.743 237.5 235.521 237.314C234.165 236.229 231.157 237.131 229.845 237.988C229.763 238.039 228.899 238.764 228.439 239.168C228.641 238.606 228.849 238.051 229.038 237.484C229.587 235.832 230.091 234.141 230.602 232.439C230.754 231.921 230.918 231.411 231.075 230.9C231.277 231.026 233.686 232.508 234.979 232.672C236.133 232.823 237.64 232.672 238.498 231.808C238.707 231.609 238.871 231.367 238.981 231.1C239.09 230.833 239.142 230.546 239.133 230.257C239.124 229.969 239.055 229.686 238.929 229.426C238.803 229.166 238.624 228.935 238.403 228.749C237.041 227.658 234.033 228.56 232.728 229.418C232.633 229.487 231.397 230.521 231.094 230.805C231.447 229.676 231.807 228.554 232.204 227.463C232.744 225.987 233.376 224.546 234.096 223.149C234.191 223.212 236.694 224.77 238.019 224.94C239.173 225.091 240.68 224.94 241.538 224.076C241.747 223.876 241.911 223.635 242.021 223.367C242.13 223.099 242.182 222.812 242.173 222.522C242.164 222.233 242.095 221.95 241.969 221.689C241.843 221.429 241.664 221.198 241.443 221.011C240.081 219.926 237.073 220.828 235.767 221.686C235.666 221.755 234.336 222.872 234.109 223.092C234.153 223.017 234.191 222.928 234.235 222.846C234.994 221.466 235.876 220.157 236.871 218.936C237.407 218.255 237.962 217.631 238.517 217.044C238.952 217.385 240.964 218.936 242.137 219.195C243.31 219.453 244.779 219.497 245.732 218.722C245.961 218.546 246.151 218.325 246.289 218.071C246.427 217.817 246.51 217.537 246.533 217.249C246.556 216.961 246.517 216.672 246.421 216.399C246.324 216.127 246.171 215.878 245.971 215.669C244.742 214.44 241.651 215.001 240.295 215.714C240.22 215.751 239.501 216.231 238.984 216.59C239.236 216.325 239.494 216.048 239.74 215.802C240.668 214.868 241.576 214.068 242.383 213.367C242.85 212.976 243.278 212.63 243.682 212.308C244.281 212.415 246.709 212.825 247.863 212.541C249.017 212.258 250.348 211.595 250.834 210.466C250.957 210.205 251.023 209.92 251.029 209.631C251.035 209.342 250.98 209.055 250.867 208.788C250.755 208.522 250.588 208.282 250.376 208.084C250.165 207.887 249.915 207.736 249.642 207.641C247.983 207.124 245.498 209.041 244.597 210.315C244.521 210.422 243.505 212.276 243.537 212.283H243.569C243.178 212.585 242.755 212.913 242.307 213.279C241.481 213.96 240.554 214.736 239.602 215.657C238.564 216.632 237.585 217.668 236.669 218.76C235.635 219.973 234.713 221.278 233.913 222.657C233.914 222.674 233.914 222.691 233.913 222.708C234.02 222.209 234.279 220.816 234.285 220.696C234.392 219.144 233.686 216.086 232.065 215.442C231.794 215.343 231.505 215.301 231.216 215.321C230.928 215.341 230.647 215.421 230.391 215.557C230.136 215.692 229.912 215.88 229.734 216.108C229.557 216.337 229.429 216.6 229.36 216.88C229.019 218.06 229.65 219.434 230.35 220.361C231.138 221.408 233.629 222.771 233.825 222.884C233.044 224.307 232.361 225.782 231.782 227.299C231.435 228.182 231.113 229.077 230.804 229.985C230.886 229.55 230.955 229.159 230.955 229.102C231.063 227.557 230.356 224.499 228.735 223.849C228.464 223.749 228.175 223.708 227.886 223.728C227.598 223.747 227.317 223.828 227.061 223.963C226.806 224.099 226.582 224.287 226.404 224.515C226.227 224.743 226.099 225.006 226.03 225.287C225.689 226.466 226.32 227.841 227.02 228.768C227.72 229.695 229.833 230.912 230.388 231.221C230.274 231.568 230.154 231.915 230.041 232.268C229.499 233.94 228.956 235.611 228.382 237.232C228.174 237.805 227.953 238.36 227.752 238.915C227.821 238.531 227.878 238.203 227.878 238.152C227.985 236.607 227.279 233.549 225.664 232.899C225.392 232.8 225.103 232.76 224.814 232.78C224.526 232.8 224.245 232.88 223.989 233.016C223.733 233.151 223.509 233.339 223.331 233.566C223.152 233.794 223.023 234.056 222.952 234.337C222.618 235.516 223.249 236.891 223.942 237.818C224.636 238.745 226.547 239.842 227.216 240.215C226.97 240.782 226.73 241.343 226.471 241.88C226.282 242.239 226.131 242.605 225.923 242.958L225.336 244.005C224.939 244.635 224.535 245.336 224.132 245.966L223.312 247.227C223.52 246.66 223.905 245.537 223.942 245.443C224.187 244.098 224.085 242.713 223.646 241.419C223.682 241.27 223.704 241.118 223.709 240.965C223.73 240.677 223.689 240.388 223.591 240.116C223.492 239.844 223.338 239.597 223.138 239.388C222.937 239.18 222.695 239.017 222.428 238.908C222.16 238.799 221.873 238.748 221.584 238.758C219.843 238.871 218.222 241.558 217.838 243.065C217.838 243.153 217.68 244.144 217.604 244.768C217.604 244.396 217.604 244.03 217.573 243.645C217.541 242.882 217.491 242.119 217.44 241.299L217.327 240.101C217.295 239.704 217.213 239.281 217.157 238.871C217.012 237.913 216.81 236.948 216.595 235.983C217.264 235.983 219.635 235.832 220.682 235.352C221.729 234.873 222.908 233.895 223.142 232.691C223.21 232.407 223.216 232.113 223.162 231.826C223.107 231.54 222.992 231.268 222.825 231.03C222.657 230.791 222.441 230.591 222.19 230.442C221.939 230.294 221.659 230.2 221.369 230.168C219.635 230.011 217.623 232.42 217.018 233.851C216.98 233.94 216.665 235.018 216.501 235.611C216.362 235.031 216.23 234.45 216.072 233.87C215.618 232.193 215.107 230.509 214.602 228.825L214.148 227.28C214.388 227.28 217.213 227.185 218.386 226.605C219.427 226.094 220.613 225.154 220.846 223.944C220.913 223.66 220.919 223.366 220.864 223.08C220.809 222.794 220.694 222.523 220.526 222.284C220.359 222.046 220.143 221.846 219.893 221.697C219.642 221.548 219.363 221.454 219.074 221.421C217.339 221.27 215.328 223.679 214.722 225.11C214.678 225.218 214.218 226.769 214.123 227.166C213.795 226.031 213.492 224.896 213.209 223.767C212.84 222.241 212.57 220.693 212.401 219.132C212.515 219.132 215.46 219.05 216.665 218.457C217.705 217.946 218.885 217 219.118 215.796C219.185 215.513 219.191 215.219 219.136 214.933C219.082 214.647 218.967 214.377 218.801 214.138C218.634 213.9 218.418 213.7 218.169 213.551C217.919 213.402 217.641 213.307 217.352 213.273C215.618 213.122 213.606 215.531 213.001 216.962C212.95 217.076 212.458 218.741 212.37 219.05C212.37 218.955 212.338 218.867 212.332 218.772C212.204 217.204 212.219 215.627 212.376 214.061C212.446 213.191 212.565 212.371 212.698 211.57C213.253 211.608 215.769 211.772 216.911 211.362C218.052 210.952 219.282 210.157 219.641 208.984C219.736 208.712 219.773 208.422 219.748 208.134C219.724 207.846 219.639 207.566 219.499 207.313C219.359 207.06 219.168 206.84 218.937 206.666C218.706 206.492 218.441 206.369 218.159 206.304C216.457 205.957 214.193 208.133 213.429 209.489C213.392 209.565 213.051 210.359 212.799 210.939C212.862 210.58 212.925 210.208 212.994 209.867C213.253 208.606 213.574 207.408 213.858 206.38C214.029 205.793 214.193 205.27 214.357 204.784C214.918 204.538 217.169 203.523 217.976 202.665C218.784 201.808 219.528 200.508 219.307 199.298C219.264 199.015 219.163 198.744 219.01 198.503C218.858 198.261 218.656 198.054 218.419 197.895C218.182 197.735 217.914 197.627 217.633 197.576C217.351 197.526 217.062 197.534 216.785 197.601C215.113 198.08 214.104 201.057 214.054 202.608C214.054 202.741 214.224 204.847 214.256 204.835H214.287C214.129 205.301 213.959 205.806 213.783 206.361C213.474 207.389 213.152 208.549 212.837 209.836C212.514 211.223 212.269 212.627 212.105 214.042C211.916 215.626 211.867 217.224 211.96 218.816C211.96 218.816 211.96 218.854 211.96 218.873C211.777 218.4 211.216 217.082 211.159 216.981C210.39 215.632 208.113 213.468 206.41 213.828C206.129 213.895 205.866 214.021 205.636 214.197C205.407 214.373 205.217 214.595 205.079 214.849C204.941 215.103 204.858 215.383 204.836 215.671C204.813 215.959 204.851 216.248 204.947 216.521C205.275 217.719 206.562 218.52 207.653 218.905Z" fill="#263238"/>
<path d="M238.523 216.729C238.523 216.729 239.463 214.837 239.507 214.717C240.018 213.248 240.137 210.113 238.756 209.041C238.521 208.873 238.253 208.757 237.97 208.699C237.687 208.642 237.394 208.644 237.112 208.708C236.83 208.771 236.565 208.892 236.333 209.065C236.101 209.238 235.908 209.457 235.767 209.71C235.136 210.757 235.37 212.232 235.799 213.33C236.303 214.622 238.523 216.723 238.523 216.729Z" fill="#263238"/>
<path d="M143.641 91.4551C144.833 91.6254 147.425 90.8244 147.425 90.8244C147.425 90.8244 146.397 89.273 146.321 89.1847C145.419 88.1504 143.073 86.6621 141.661 87.2928C141.429 87.3999 141.223 87.5545 141.054 87.7466C140.886 87.9386 140.761 88.1638 140.685 88.4075C140.61 88.6512 140.586 88.9081 140.616 89.1615C140.646 89.4149 140.729 89.6591 140.86 89.8784C141.377 90.837 142.632 91.3037 143.641 91.4551Z" fill="#263238"/>
<path d="M146.618 98.7329C147.759 98.5878 149.897 97.2761 150.067 97.1752C150.812 98.3971 151.641 99.5666 152.546 100.675C153.069 101.306 153.612 101.968 154.167 102.599C153.87 102.347 153.605 102.126 153.536 102.101C152.401 101.338 149.752 100.537 148.541 101.47C148.346 101.635 148.188 101.838 148.077 102.068C147.965 102.298 147.904 102.548 147.895 102.803C147.887 103.058 147.932 103.312 148.028 103.548C148.124 103.785 148.269 103.998 148.453 104.175C149.21 104.951 150.54 105.071 151.556 104.945C152.571 104.819 154.431 103.734 154.911 103.444C155.125 103.684 155.34 103.93 155.541 104.169C156.582 105.317 157.623 106.465 158.613 107.619C158.96 108.029 159.287 108.439 159.615 108.88C159.351 108.653 159.13 108.47 159.092 108.445C157.95 107.682 155.308 106.881 154.097 107.814C153.901 107.978 153.742 108.182 153.631 108.412C153.519 108.641 153.457 108.892 153.448 109.147C153.44 109.403 153.486 109.657 153.582 109.893C153.679 110.13 153.824 110.343 154.009 110.52C154.759 111.296 156.09 111.415 157.112 111.289C158.133 111.163 159.805 110.186 160.379 109.839C160.7 110.274 161.009 110.703 161.325 111.138C161.52 111.441 161.728 111.718 161.911 112.027L162.453 112.935C162.781 113.528 163.122 114.134 163.425 114.72C163.639 115.124 163.835 115.515 164.055 115.906C163.708 115.496 163.027 114.714 162.958 114.644C161.949 113.717 159.451 112.525 158.114 113.288C157.897 113.421 157.71 113.598 157.565 113.807C157.42 114.017 157.321 114.255 157.274 114.505C157.227 114.755 157.233 115.013 157.292 115.261C157.351 115.509 157.461 115.741 157.616 115.944C158.247 116.826 159.54 117.148 160.568 117.205C161.69 117.205 163.917 116.309 164.194 116.196C164.516 116.826 164.825 117.457 165.115 118.088C165.701 119.311 166.193 120.427 166.609 121.399L167.574 121.128C167.12 120.131 166.578 118.971 165.935 117.69C165.607 117.06 165.241 116.328 164.856 115.616C165.471 115.144 166.058 114.639 166.616 114.102C167.72 114.625 168.892 114.992 170.097 115.193C170.009 115.918 169.92 116.618 169.826 117.281C169.643 118.542 169.454 119.671 169.277 120.661L170.318 120.371C170.456 119.482 170.595 118.479 170.728 117.4C170.816 116.662 170.898 115.88 170.974 115.073C171.264 115.073 173.673 114.89 174.669 114.354C175.571 113.869 176.561 113.005 176.757 111.933C176.805 111.682 176.801 111.425 176.743 111.176C176.685 110.928 176.576 110.695 176.421 110.492C176.267 110.289 176.072 110.12 175.848 109.998C175.624 109.876 175.377 109.802 175.123 109.782C173.591 109.694 171.888 111.882 171.396 113.156C171.365 113.232 171.144 114.089 171.011 114.632C171.011 114.298 171.074 114.001 171.1 113.642C171.15 112.967 171.188 112.298 171.232 111.573V110.514C171.232 110.16 171.232 109.782 171.232 109.416C171.232 108.559 171.131 107.695 171.043 106.824C171.629 106.875 173.723 107.013 174.694 106.673C175.666 106.332 176.795 105.626 177.122 104.592C177.209 104.353 177.244 104.099 177.226 103.847C177.208 103.594 177.138 103.347 177.019 103.123C176.9 102.899 176.736 102.703 176.536 102.546C176.337 102.39 176.107 102.277 175.861 102.214C174.354 101.899 172.342 103.803 171.661 104.989C171.623 105.065 171.226 105.973 171.03 106.477C170.967 105.96 170.91 105.437 170.835 104.913C170.614 103.393 170.343 101.861 170.078 100.335C169.996 99.8681 169.92 99.4014 169.845 98.9347C170.053 98.9347 172.538 99.168 173.629 98.7896C174.594 98.4491 175.729 97.7428 176.063 96.7085C176.149 96.4701 176.184 96.2162 176.167 95.9633C176.149 95.7105 176.078 95.4641 175.959 95.2402C175.84 95.0162 175.676 94.8196 175.477 94.663C175.277 94.5064 175.047 94.3933 174.802 94.3309C173.301 94.0156 171.289 95.9202 170.608 97.1058C170.557 97.2004 169.977 98.5059 169.864 98.8464C169.693 97.8184 169.536 96.7905 169.422 95.7751C169.257 94.3982 169.181 93.0121 169.195 91.6254C169.296 91.6254 171.888 91.8776 172.979 91.4803C173.944 91.1398 175.079 90.4397 175.413 89.4055C175.499 89.1649 175.533 88.909 175.513 88.6544C175.494 88.3997 175.42 88.1522 175.298 87.9278C175.176 87.7034 175.008 87.5073 174.805 87.3522C174.602 87.1972 174.369 87.0867 174.121 87.0279C172.62 86.7126 170.601 88.6108 169.927 89.8028C169.87 89.8974 169.296 91.3101 169.176 91.5686C169.176 91.4929 169.176 91.4047 169.176 91.329C169.234 89.9394 169.412 88.5574 169.706 87.1982C169.864 86.4477 170.053 85.7414 170.255 85.0539C170.734 85.1485 172.922 85.5522 173.963 85.3062C175.003 85.0602 176.164 84.5053 176.605 83.5151C176.719 83.285 176.783 83.0335 176.793 82.7769C176.803 82.5204 176.758 82.2646 176.662 82.0265C176.567 81.7883 176.422 81.5731 176.237 81.3949C176.052 81.2167 175.831 81.0796 175.59 80.9925C174.127 80.5132 171.92 82.1844 171.112 83.2944C171.068 83.3512 170.69 84.0134 170.419 84.5053C170.513 84.1962 170.608 83.8746 170.702 83.5782C171.068 82.4745 171.465 81.4907 171.831 80.6141C172.039 80.1222 172.235 79.6807 172.43 79.2645C172.948 79.1131 175.022 78.4762 175.817 77.7888C176.612 77.1013 177.406 76.0608 177.337 74.976C177.33 74.7213 177.27 74.4708 177.16 74.2408C177.051 74.0108 176.894 73.8065 176.7 73.6411C176.506 73.4758 176.279 73.3531 176.035 73.281C175.79 73.2089 175.534 73.1891 175.281 73.2228C173.761 73.4751 172.569 75.9725 172.367 77.3284C172.367 77.4482 172.279 79.3087 172.311 79.3023H172.342C172.147 79.6997 171.945 80.1222 171.711 80.5637C171.333 81.4277 170.91 82.4115 170.519 83.5151C170.088 84.695 169.728 85.8996 169.441 87.1225C169.109 88.4886 168.898 89.8815 168.81 91.2848V91.3353C168.697 90.9001 168.344 89.6956 168.306 89.601C167.776 88.3397 166.01 86.208 164.478 86.3405C164.224 86.3686 163.979 86.4502 163.758 86.5799C163.538 86.7096 163.348 86.8845 163.2 87.093C163.053 87.3015 162.951 87.539 162.901 87.7897C162.852 88.0405 162.856 88.2988 162.914 88.5478C163.116 89.6136 164.175 90.4397 165.071 90.9001C166.111 91.411 168.615 91.5308 168.81 91.5308C168.761 92.9637 168.805 94.3984 168.943 95.8256C169.025 96.658 169.126 97.4905 169.239 98.3482C169.132 97.9761 169.031 97.6419 169.012 97.5977C168.482 96.3364 166.71 94.2048 165.184 94.3372C164.931 94.3656 164.686 94.4471 164.466 94.5763C164.246 94.7056 164.056 94.8797 163.908 95.0873C163.76 95.2949 163.657 95.5315 163.606 95.7814C163.556 96.0314 163.558 96.2893 163.614 96.5382C163.816 97.604 164.875 98.4302 165.777 98.8969C166.679 99.3636 168.842 99.4708 169.403 99.496C169.454 99.8113 169.498 100.127 169.542 100.455C169.775 101.987 170.015 103.52 170.204 105.027C170.267 105.557 170.311 106.086 170.362 106.61C170.267 106.276 170.179 105.979 170.16 105.979C169.63 104.718 167.864 102.58 166.332 102.712C166.078 102.741 165.834 102.824 165.614 102.954C165.394 103.084 165.205 103.258 165.057 103.467C164.909 103.675 164.807 103.912 164.758 104.162C164.708 104.413 164.711 104.671 164.768 104.92C164.97 105.985 166.029 106.812 166.925 107.272C167.82 107.732 169.782 107.84 170.456 107.865C170.488 108.407 170.519 108.95 170.526 109.473C170.526 109.832 170.526 110.179 170.526 110.539C170.526 110.898 170.494 111.245 170.475 111.598C170.425 112.267 170.374 112.961 170.305 113.616C170.261 114.077 170.21 114.506 170.16 114.947C170.097 114.417 169.958 113.383 169.939 113.295C169.603 112.136 168.975 111.083 168.117 110.236C168.083 110.107 168.039 109.98 167.984 109.858C167.886 109.622 167.74 109.409 167.554 109.234C167.369 109.058 167.148 108.924 166.907 108.839C166.666 108.755 166.41 108.722 166.156 108.743C165.901 108.764 165.654 108.839 165.43 108.962C164.106 109.738 163.891 112.494 164.169 113.837C164.169 113.913 164.471 114.752 164.661 115.275C164.503 114.985 164.352 114.701 164.181 114.398C163.86 113.812 163.519 113.232 163.153 112.601L162.586 111.706C162.403 111.403 162.176 111.106 161.955 110.797C161.457 110.104 160.921 109.423 160.366 108.748C160.883 108.464 162.706 107.423 163.324 106.603C163.942 105.784 164.503 104.573 164.207 103.532C164.144 103.286 164.031 103.055 163.874 102.855C163.717 102.655 163.52 102.49 163.295 102.372C163.07 102.253 162.823 102.182 162.57 102.165C162.316 102.148 162.062 102.184 161.823 102.271C160.391 102.838 159.76 105.531 159.849 106.9C159.849 106.988 160.032 107.959 160.139 108.495C159.798 108.092 159.464 107.688 159.111 107.291C158.089 106.149 157.017 105.027 155.958 103.898L154.993 102.857C155.176 102.756 157.37 101.596 158.064 100.65C158.695 99.8302 159.243 98.6194 158.947 97.5788C158.885 97.3316 158.771 97.1002 158.614 96.8997C158.456 96.6992 158.259 96.5341 158.033 96.4151C157.808 96.2962 157.56 96.226 157.305 96.2092C157.051 96.1923 156.796 96.2292 156.557 96.3175C155.131 96.8788 154.501 99.578 154.589 100.947C154.589 101.047 154.848 102.454 154.93 102.807C154.223 102.044 153.523 101.274 152.861 100.486C151.967 99.4275 151.142 98.3132 150.389 97.1499C150.477 97.1058 152.773 95.8886 153.479 94.9363C154.11 94.1165 154.658 92.9056 154.362 91.865C154.3 91.6186 154.186 91.3879 154.029 91.188C153.872 90.9881 153.675 90.8233 153.451 90.7044C153.226 90.5855 152.979 90.5151 152.725 90.4978C152.471 90.4804 152.217 90.5165 151.978 90.6037C150.553 91.165 149.916 93.8642 150.011 95.2327C150.011 95.34 150.288 96.8472 150.357 97.1247L150.219 96.9229C149.498 95.7352 148.883 94.4858 148.383 93.1894C148.1 92.4768 147.866 91.783 147.658 91.0956C148.106 90.9127 150.181 90.0424 150.893 89.2667C151.606 88.491 152.287 87.3748 152.104 86.3089C152.071 86.056 151.985 85.813 151.851 85.5956C151.717 85.3783 151.539 85.1915 151.329 85.0475C151.118 84.9035 150.879 84.8056 150.628 84.7599C150.377 84.7143 150.12 84.7221 149.872 84.7828C148.39 85.1864 147.469 87.7973 147.406 89.1974C147.406 89.273 147.456 90.0361 147.5 90.5911C147.406 90.2821 147.311 89.9604 147.229 89.664C146.92 88.5415 146.712 87.5009 146.529 86.5738C146.428 86.0441 146.353 85.5648 146.283 85.117C146.63 84.7008 148.011 83.0232 148.301 82.0142C148.592 81.0051 148.667 79.6934 148.018 78.8609C147.872 78.6513 147.683 78.475 147.464 78.3432C147.245 78.2115 147.001 78.1275 146.748 78.0965C146.494 78.0656 146.237 78.0884 145.993 78.1636C145.749 78.2388 145.523 78.3647 145.331 78.5329C144.202 79.5735 144.587 82.3169 145.161 83.5782C145.211 83.6854 146.189 85.2747 146.201 85.2557C146.258 85.6909 146.321 86.1513 146.409 86.6558C146.567 87.5892 146.756 88.6424 147.04 89.7713C147.331 90.9938 147.693 92.1983 148.125 93.3786C148.602 94.7031 149.198 95.9821 149.903 97.2004C149.905 97.2151 149.905 97.2298 149.903 97.2445C149.569 96.9418 148.642 96.1283 148.528 96.0778C147.387 95.3147 144.745 94.5138 143.534 95.4472C143.338 95.6112 143.179 95.8148 143.067 96.0445C142.955 96.2742 142.893 96.5249 142.885 96.7802C142.876 97.0355 142.922 97.2897 143.019 97.5262C143.115 97.7627 143.261 97.9762 143.445 98.1527C144.272 98.7392 145.596 98.859 146.618 98.7329Z" fill="#263238"/>
<path d="M170.084 84.7827C170.084 84.7827 170.084 82.8908 170.084 82.8025C169.907 81.4466 168.766 78.9239 167.252 78.6465C167 78.6082 166.743 78.6233 166.497 78.6909C166.251 78.7584 166.021 78.8769 165.824 79.0386C165.627 79.2003 165.466 79.4016 165.351 79.6296C165.236 79.8575 165.171 80.107 165.159 80.3618C165.07 81.4403 165.859 82.5187 166.622 83.1998C167.505 84.0007 170.084 84.7827 170.084 84.7827Z" fill="#263238"/>
<path d="M63.415 270.625C64.5376 270.259 66.4737 268.455 66.4737 268.455C66.4737 268.455 64.8971 267.541 64.7899 267.497C63.5286 266.973 60.8483 266.696 59.8644 267.837C59.7074 268.032 59.593 268.258 59.5286 268.5C59.4642 268.742 59.4512 268.994 59.4904 269.241C59.5296 269.489 59.6202 269.725 59.7563 269.935C59.8924 270.145 60.0711 270.324 60.2807 270.461C61.1825 271.066 62.4438 270.934 63.415 270.625Z" fill="#263238"/>
<path d="M69.1917 275.746C70.1377 275.115 71.4495 273.04 71.5504 272.87C72.7373 273.624 73.9741 274.296 75.2523 274.882C75.9965 275.229 76.7533 275.55 77.5164 275.872L76.7659 275.689C75.4352 275.513 72.7549 275.96 72.1054 277.322C72.0053 277.552 71.9545 277.8 71.9563 278.051C71.9581 278.302 72.0125 278.549 72.1159 278.777C72.2193 279.005 72.3695 279.209 72.5567 279.376C72.7439 279.543 72.964 279.668 73.2027 279.744C74.2054 280.097 75.4289 279.624 76.2677 279.076C77.1065 278.527 78.2732 276.761 78.5696 276.295L79.4525 276.648C80.8652 277.215 82.2842 277.77 83.6527 278.357C84.1383 278.565 84.605 278.786 85.078 278.987L84.4473 278.83C83.1166 278.653 80.4363 279.101 79.7868 280.463C79.6867 280.693 79.6359 280.941 79.6377 281.192C79.6395 281.442 79.6939 281.69 79.7973 281.918C79.9007 282.146 80.0509 282.35 80.2381 282.517C80.4253 282.683 80.6454 282.809 80.8841 282.885C81.8869 283.238 83.1103 282.765 83.9491 282.216C84.7879 281.668 85.8411 280.072 86.1942 279.517C86.6672 279.757 87.1465 279.996 87.5943 280.249C87.897 280.432 88.225 280.583 88.4961 280.778L89.3664 281.346C89.9151 281.724 90.4764 282.109 90.9935 282.494C91.3593 282.752 91.6999 283.011 92.0467 283.27C91.5674 283.061 90.6215 282.639 90.5395 282.639C89.2466 282.267 86.5285 282.298 85.6834 283.547C85.5466 283.76 85.4565 284 85.419 284.25C85.3816 284.501 85.3977 284.756 85.4662 285C85.5347 285.244 85.6542 285.47 85.8166 285.664C85.9791 285.858 86.1809 286.016 86.4087 286.126C87.342 286.631 88.6223 286.347 89.562 285.931C90.571 285.464 92.1224 283.686 92.3179 283.465C92.8855 283.894 93.4405 284.316 93.9513 284.726C94.9982 285.553 95.9127 286.316 96.701 286.99L97.4326 286.36C96.6064 285.679 95.6163 284.897 94.5 284.045C93.9198 283.604 93.2954 283.15 92.6459 282.683C92.9898 282.005 93.2889 281.306 93.5414 280.589C94.7385 280.573 95.9275 280.388 97.0731 280.041C97.3127 280.715 97.5398 281.371 97.7416 281.996C98.1326 283.181 98.4605 284.26 98.7317 285.206L99.52 284.506C99.2551 283.661 98.9461 282.721 98.5867 281.712C98.347 281.024 98.0821 280.299 97.7983 279.555C98.0443 279.41 100.094 278.218 100.737 277.316C101.38 276.414 101.841 275.298 101.526 274.283C101.46 274.041 101.344 273.817 101.185 273.623C101.026 273.429 100.829 273.272 100.605 273.16C100.381 273.048 100.136 272.984 99.8863 272.974C99.6363 272.963 99.3869 273.005 99.1542 273.097C97.7668 273.684 97.2118 276.345 97.338 277.688C97.338 277.764 97.5208 278.615 97.6407 279.151L97.2875 278.243C97.0415 277.613 96.783 277.02 96.5055 276.351C96.3604 276.036 96.2091 275.721 96.064 275.405C95.919 275.09 95.7361 274.775 95.5721 274.447C95.1748 273.709 94.7333 272.977 94.3108 272.258C94.8469 272.044 96.7514 271.256 97.4641 270.53C98.1767 269.805 98.8578 268.701 98.7254 267.648C98.6963 267.399 98.615 267.159 98.487 266.944C98.3591 266.729 98.1871 266.543 97.9825 266.398C97.7778 266.253 97.5451 266.154 97.2993 266.105C97.0535 266.056 96.8002 266.06 96.5559 266.116C95.0991 266.488 94.1531 269.036 94.0712 270.379C94.0712 270.467 94.1153 271.438 94.1531 271.968C93.8756 271.533 93.5982 271.098 93.3017 270.669C92.4441 269.408 91.5422 268.203 90.6467 266.973C90.3692 266.595 90.1043 266.217 89.8331 265.838C90.0223 265.769 92.3053 264.88 93.0936 264.072C93.882 263.265 94.4937 262.243 94.3549 261.19C94.3258 260.941 94.2446 260.702 94.1166 260.486C93.9886 260.271 93.8167 260.085 93.612 259.94C93.4074 259.796 93.1746 259.696 92.9288 259.647C92.683 259.598 92.4298 259.602 92.1855 259.658C90.7287 260.03 89.7764 262.578 89.6629 263.921C89.6629 264.022 89.7322 265.416 89.7701 265.775C89.1394 264.943 88.5844 264.104 88.0421 263.253C87.2978 262.115 86.63 260.928 86.0429 259.702C86.1312 259.664 88.5214 258.75 89.3286 257.923C90.0286 257.205 90.7287 256.095 90.5899 255.041C90.5658 254.778 90.4834 254.524 90.3486 254.297C90.2139 254.07 90.0303 253.875 89.811 253.728C89.5918 253.58 89.3425 253.484 89.0812 253.445C88.82 253.406 88.5533 253.426 88.3006 253.503C86.8375 253.875 85.8915 256.423 85.8095 257.766C85.8095 257.873 85.8852 259.374 85.9168 259.658C85.9168 259.588 85.8411 259.519 85.8095 259.443C85.2525 258.199 84.8092 256.908 84.4852 255.584C84.296 254.852 84.1509 254.146 84.0311 253.458C84.4915 253.332 86.5979 252.739 87.4114 252.071C88.225 251.402 89.0007 250.406 88.9565 249.34C88.9546 249.09 88.9001 248.843 88.7965 248.615C88.6929 248.387 88.5425 248.184 88.3552 248.018C88.1678 247.852 87.9477 247.727 87.7091 247.652C87.4704 247.577 87.2186 247.552 86.9699 247.581C85.4816 247.789 84.2581 250.223 84.0311 251.548C84.0311 251.617 83.968 252.367 83.9428 252.91C83.8986 252.601 83.8356 252.279 83.7977 251.976C83.6338 250.847 83.5581 249.801 83.5013 248.88C83.5013 248.35 83.4509 247.877 83.4383 247.429C83.8293 247.07 85.3807 245.607 85.7843 244.661C86.1879 243.715 86.415 242.447 85.8978 241.507C85.7801 241.287 85.6173 241.094 85.4199 240.94C85.2225 240.787 84.995 240.677 84.7522 240.617C84.5094 240.558 84.2568 240.55 84.0108 240.595C83.7648 240.64 83.5311 240.736 83.3248 240.877C82.1013 241.753 82.1328 244.472 82.5427 245.752C82.5806 245.859 83.3311 247.53 83.35 247.511C83.35 247.94 83.35 248.401 83.35 248.905C83.3878 249.832 83.4446 250.879 83.5833 252.014C83.7222 253.241 83.9328 254.458 84.214 255.659C84.5196 257.007 84.9417 258.326 85.4753 259.601C85.4765 259.616 85.4765 259.63 85.4753 259.645C85.1852 259.311 84.3527 258.384 84.277 258.333C83.2617 257.457 80.7769 256.347 79.4904 257.129C79.2804 257.264 79.1013 257.443 78.9647 257.652C78.828 257.861 78.7368 258.097 78.697 258.343C78.6571 258.59 78.6696 258.843 78.7334 259.084C78.7973 259.326 78.9112 259.551 79.0678 259.746C79.6985 260.597 80.9598 260.881 81.9941 260.881C83.1292 260.881 85.3681 259.872 85.5447 259.79C86.12 261.072 86.7816 262.313 87.5249 263.505C87.9538 264.205 88.4078 264.892 88.8682 265.58C88.6097 265.302 88.3826 265.05 88.3448 265.018C87.3294 264.135 84.8446 263.032 83.5581 263.808C83.3464 263.942 83.1657 264.121 83.0278 264.33C82.89 264.54 82.798 264.777 82.7581 265.024C82.7182 265.272 82.7312 265.526 82.7963 265.768C82.8613 266.011 82.9769 266.237 83.1356 266.431C83.7662 267.282 85.0275 267.56 86.0555 267.566C87.0835 267.573 89.007 266.74 89.5115 266.513L90.0539 267.301C90.9242 268.563 91.7945 269.792 92.6143 271.041C92.9044 271.476 93.1756 271.924 93.4405 272.366C93.2135 272.113 93.018 271.905 92.9864 271.88C91.9711 270.997 89.4863 269.887 88.1997 270.669C87.9882 270.803 87.8076 270.981 87.6698 271.19C87.532 271.399 87.44 271.635 87.4001 271.883C87.3602 272.13 87.3731 272.383 87.4381 272.625C87.5031 272.867 87.6187 273.092 87.7772 273.286C88.4078 274.138 89.6692 274.421 90.7034 274.421C91.7377 274.421 93.4594 273.677 94.0648 273.412C94.3234 273.873 94.5883 274.333 94.8216 274.794C94.9793 275.109 95.1496 275.424 95.282 275.733C95.4144 276.042 95.5658 276.364 95.7045 276.686C95.9442 277.316 96.2028 277.947 96.4235 278.54C96.5875 278.962 96.7262 279.366 96.8713 279.769C96.5938 279.334 96.0199 278.508 95.9631 278.414C95.1641 277.542 94.1542 276.89 93.0306 276.522C92.9472 276.418 92.8519 276.325 92.7468 276.244C92.5622 276.09 92.3481 275.975 92.1176 275.906C91.8871 275.837 91.645 275.816 91.406 275.843C91.167 275.871 90.9362 275.947 90.7276 276.067C90.519 276.187 90.337 276.348 90.1926 276.54C89.3601 277.802 90.3692 280.324 91.208 281.371C91.2584 281.428 91.8765 282.046 92.2675 282.425L91.4728 281.857C90.9305 281.479 90.3755 281.119 89.7827 280.722L88.8998 280.179C88.6033 279.99 88.2691 279.833 87.9538 279.65C87.2159 279.252 86.4528 278.887 85.6708 278.54C85.9987 278.06 87.1528 276.358 87.342 275.386C87.5312 274.415 87.4997 273.091 86.7871 272.302C86.6255 272.111 86.4254 271.956 86.1999 271.846C85.9743 271.737 85.7283 271.677 85.4778 271.669C85.2274 271.661 84.9781 271.707 84.7462 271.802C84.5143 271.897 84.305 272.039 84.132 272.22C83.1229 273.337 83.7347 276.004 84.4095 277.146C84.4473 277.222 85.0401 278.004 85.3555 278.407C84.8825 278.199 84.4095 277.991 83.9302 277.777C82.5301 277.215 81.0985 276.686 79.6732 276.156L78.3678 275.664C78.4876 275.494 79.9003 273.494 80.1147 272.384C80.3039 271.394 80.2724 270.089 79.5597 269.294C79.3976 269.104 79.1974 268.949 78.9718 268.84C78.7463 268.732 78.5005 268.672 78.2504 268.664C78.0002 268.656 77.7512 268.701 77.5194 268.796C77.2876 268.89 77.0782 269.032 76.9047 269.212C75.8956 270.329 76.5073 272.996 77.1822 274.144C77.2326 274.232 78.0651 275.355 78.2921 275.632C77.3335 275.267 76.4001 274.894 75.4605 274.491C74.2167 273.946 73.0078 273.324 71.8405 272.63C71.8909 272.548 73.3793 270.474 73.5937 269.332C73.7829 268.348 73.7514 267.036 73.0387 266.248C72.8776 266.056 72.6779 265.9 72.4526 265.791C72.2273 265.681 71.9814 265.62 71.7309 265.612C71.4804 265.603 71.231 265.648 70.9989 265.742C70.7668 265.837 70.5572 265.979 70.3837 266.16C69.3746 267.282 69.9927 269.944 70.6612 271.092C70.7179 271.186 71.6134 272.391 71.79 272.599L71.5819 272.485C70.4309 271.754 69.3481 270.92 68.3466 269.994C67.7854 269.49 67.2745 268.979 66.7952 268.468C67.1106 268.109 68.5358 266.456 68.8449 265.454C69.1539 264.451 69.2548 263.183 68.6304 262.3C68.4914 262.092 68.3102 261.916 68.0985 261.783C67.8868 261.65 67.6494 261.563 67.4018 261.528C67.1542 261.493 66.902 261.51 66.6617 261.579C66.4213 261.648 66.1982 261.767 66.0069 261.928C64.878 262.925 65.1997 265.624 65.7357 266.86C65.7357 266.923 66.1393 267.573 66.4231 268.046C66.2087 267.806 65.9817 267.573 65.7925 267.346C65.0357 266.494 64.3987 265.662 63.8374 264.924C63.5221 264.508 63.2446 264.117 62.9924 263.751C63.1185 263.24 63.623 261.159 63.4149 260.143C63.2068 259.128 62.7338 257.949 61.7815 257.469C61.5616 257.345 61.3176 257.269 61.066 257.246C60.8143 257.223 60.5607 257.254 60.322 257.337C60.0833 257.42 59.865 257.553 59.6817 257.727C59.4984 257.901 59.3543 258.112 59.2589 258.346C58.7165 259.752 60.249 261.998 61.2959 262.843C61.3842 262.918 62.9356 263.896 62.9419 263.871V263.839C63.1816 264.192 63.4401 264.577 63.7302 264.987C64.2789 265.737 64.9033 266.576 65.6222 267.453C66.4097 268.401 67.252 269.302 68.1448 270.152C69.1387 271.115 70.2173 271.987 71.3675 272.757H71.4116C70.9891 272.637 69.7845 272.34 69.6899 272.328C68.3593 272.151 65.679 272.599 65.0294 273.961C64.9293 274.191 64.8785 274.439 64.8803 274.69C64.8821 274.94 64.9365 275.188 65.0399 275.416C65.1434 275.644 65.2935 275.848 65.4807 276.015C65.6679 276.181 65.888 276.307 66.1267 276.383C67.1295 276.768 68.3529 276.295 69.1917 275.746Z" fill="#263238"/>
<path d="M83.7916 253.275C83.8231 253.275 82.9843 251.642 82.9213 251.541C82.1708 250.425 80.0707 248.703 78.6202 249.113C78.3811 249.188 78.1605 249.312 77.9728 249.478C77.785 249.644 77.6344 249.847 77.5308 250.075C77.4273 250.303 77.373 250.551 77.3716 250.801C77.3702 251.051 77.4218 251.299 77.5228 251.528C77.9138 252.519 79.0743 253.13 80.0455 253.42C81.1807 253.711 83.7916 253.275 83.7916 253.275Z" fill="#263238"/>
<path d="M171.541 96.0211L165.897 100.984" stroke="#263238" stroke-linecap="round" stroke-linejoin="round"/>
<path d="M221.773 51.8624L188.935 80.7276" stroke="#263238" stroke-linecap="round" stroke-linejoin="round"/>
<path d="M216.86 50.6327L184.93 62.2998" stroke="#263238" stroke-linecap="round" stroke-linejoin="round"/>
<path d="M187.617 45.8586L167.121 47.5614" stroke="#263238" stroke-linecap="round" stroke-linejoin="round"/>
<path d="M211.33 43.8784L189.906 45.6631" stroke="#263238" stroke-linecap="round" stroke-linejoin="round"/>
<path d="M202.248 31.1517L180.894 24" stroke="#263238" stroke-linecap="round" stroke-linejoin="round"/>
<path d="M209.488 33.441L205.219 32.0914" stroke="#263238" stroke-linecap="round" stroke-linejoin="round"/>
<path d="M295.333 96.0211L300.977 100.984" stroke="#263238" stroke-linecap="round" stroke-linejoin="round"/>
<path d="M245.101 51.8624L291.858 92.9687" stroke="#263238" stroke-linecap="round" stroke-linejoin="round"/>
<path d="M250.014 50.6327L281.944 62.2998" stroke="#263238" stroke-linecap="round" stroke-linejoin="round"/>
<path d="M279.251 45.8586L299.748 47.5614" stroke="#263238" stroke-linecap="round" stroke-linejoin="round"/>
<path d="M255.539 43.8784L276.968 45.6631" stroke="#263238" stroke-linecap="round" stroke-linejoin="round"/>
<path d="M264.626 31.1516L280.942 25.9802" stroke="#263238" stroke-linecap="round" stroke-linejoin="round"/>
<path d="M257.38 33.441L261.656 32.0914" stroke="#263238" stroke-linecap="round" stroke-linejoin="round"/>
<path d="M234.052 46.546H230.672V60.9376H234.052V46.546Z" fill="#92E3A9" stroke="#263238" stroke-linecap="round" stroke-linejoin="round"/>
<path d="M237.357 64.0215H227.367L228.547 58.4402H236.177L237.357 64.0215Z" fill="#92E3A9" stroke="#263238" stroke-linecap="round" stroke-linejoin="round"/>
<path d="M243.373 66.3676H221.351L223.697 61.2277H241.027L243.373 66.3676Z" fill="#92E3A9" stroke="#263238" stroke-linecap="round" stroke-linejoin="round"/>
<path d="M221.199 31.3093C219.624 31.2792 218.076 31.7189 216.751 32.5722C215.427 33.4255 214.386 34.6538 213.763 36.1005C213.139 37.5473 212.96 39.1471 213.249 40.6959C213.538 42.2447 214.281 43.6725 215.384 44.7972C216.487 45.9219 217.901 46.6927 219.444 47.0113C220.987 47.3299 222.589 47.1819 224.048 46.5861C225.507 45.9903 226.755 44.9738 227.633 43.666C228.512 42.3582 228.981 40.8185 228.982 39.243C228.992 38.211 228.798 37.1872 228.412 36.23C228.027 35.2728 227.456 34.401 226.734 33.6643C226.011 32.9275 225.15 32.3404 224.201 31.9363C223.251 31.5323 222.231 31.3192 221.199 31.3093ZM221.199 45.1838C220.025 45.2051 218.87 44.8761 217.883 44.2389C216.896 43.6017 216.122 42.6851 215.658 41.6058C215.194 40.5266 215.061 39.3336 215.278 38.1789C215.494 37.0243 216.05 35.9602 216.873 35.1224C217.697 34.2846 218.751 33.7109 219.902 33.4746C221.053 33.2382 222.248 33.3498 223.335 33.7952C224.422 34.2406 225.352 34.9996 226.006 35.9754C226.66 36.9512 227.009 38.0997 227.008 39.2745C227.013 40.8229 226.405 42.3104 225.316 43.4118C224.228 44.5132 222.748 45.1389 221.199 45.1522V45.1838Z" fill="#92E3A9" stroke="#263238" stroke-linecap="round" stroke-linejoin="round"/>
<path d="M244.704 31.3093C243.129 31.2792 241.58 31.7189 240.256 32.5722C238.932 33.4255 237.891 34.6538 237.267 36.1005C236.644 37.5473 236.465 39.1471 236.754 40.6959C237.042 42.2447 237.786 43.6725 238.889 44.7972C239.992 45.9219 241.406 46.6927 242.949 47.0113C244.491 47.3299 246.094 47.1819 247.553 46.5861C249.011 45.9903 250.26 44.9738 251.138 43.666C252.017 42.3582 252.486 40.8185 252.486 39.243C252.496 38.211 252.303 37.1872 251.917 36.23C251.532 35.2728 250.961 34.401 250.239 33.6643C249.516 32.9275 248.655 32.3404 247.706 31.9363C246.756 31.5323 245.736 31.3192 244.704 31.3093ZM244.704 45.1838C243.529 45.2063 242.374 44.8785 241.387 44.242C240.399 43.6056 239.623 42.6894 239.158 41.6103C238.693 40.5312 238.56 39.338 238.776 38.183C238.991 37.0279 239.546 35.9633 240.37 35.1248C241.193 34.2864 242.247 33.7121 243.398 33.4752C244.549 33.2383 245.744 33.3495 246.832 33.7947C247.919 34.2399 248.849 34.9988 249.504 35.9748C250.158 36.9507 250.507 38.0995 250.506 39.2745C250.511 40.8218 249.904 42.3084 248.817 43.4096C247.73 44.5108 246.251 45.1372 244.704 45.1522V45.1838Z" fill="#92E3A9" stroke="#263238" stroke-linecap="round" stroke-linejoin="round"/>
<path d="M232.362 50.5065C231.071 50.5073 229.791 50.2537 228.598 49.7599C227.404 49.2662 226.32 48.5421 225.406 47.629C224.492 46.716 223.767 45.6318 223.273 44.4386C222.778 43.2453 222.524 41.9663 222.524 40.6746V30.5399H242.182V40.6746C242.182 43.28 241.147 45.7789 239.306 47.6224C237.465 49.4658 234.968 50.5032 232.362 50.5065Z" fill="#92E3A9" stroke="#263238" stroke-linecap="round" stroke-linejoin="round"/>
<path d="M232.091 33.7752L233.359 37.6727H237.458L234.141 40.0818L235.408 43.9792L232.091 41.5701L228.774 43.9792L230.041 40.0818L226.724 37.6727H230.823L232.091 33.7752Z" fill="#263238"/>
<path d="M264.86 66.418H200.28V125.296H264.86V66.418Z" fill="#263238" stroke="#263238" stroke-linejoin="round"/>
<path d="M243.203 66.418H200.28V125.296H243.203V66.418Z" fill="white" stroke="#263238" stroke-linejoin="round"/>
<path d="M215.145 95.6678H150.565V154.546H215.145V95.6678Z" fill="#263238" stroke="#263238" stroke-linejoin="round"/>
<path d="M193.488 95.6678H150.565V154.546H193.488V95.6678Z" fill="white" stroke="#263238" stroke-linejoin="round"/>
<path d="M179.746 112.349V107.644H176.801C176.576 106.823 176.241 106.036 175.804 105.304L177.627 103.475L174.297 100.146L172.481 101.962C171.666 101.468 170.781 101.1 169.857 100.871V98.695H165.146V100.871C164.129 101.132 163.162 101.558 162.283 102.132L160.984 100.833L157.673 104.144L159.079 105.55C158.553 106.493 158.193 107.519 158.013 108.584H156.222V113.295H158.366C158.693 114.268 159.171 115.184 159.785 116.007L158.335 117.457L161.646 120.768L163.443 118.971C164.283 119.362 165.175 119.629 166.092 119.765V122.219H170.797V119.286C171.579 119.002 172.321 118.619 173.004 118.144L174.965 120.106L178.295 116.776L176.107 114.588C176.472 113.872 176.745 113.114 176.92 112.33L179.746 112.349ZM167.505 116.133C166.339 116.134 165.2 115.79 164.23 115.143C163.261 114.497 162.505 113.577 162.058 112.501C161.611 111.425 161.494 110.24 161.72 109.097C161.947 107.954 162.507 106.904 163.331 106.079C164.155 105.255 165.204 104.693 166.347 104.466C167.49 104.238 168.674 104.354 169.751 104.8C170.828 105.245 171.748 106 172.396 106.969C173.043 107.938 173.389 109.077 173.389 110.242C173.385 111.801 172.764 113.295 171.661 114.397C170.558 115.499 169.064 116.118 167.505 116.12V116.133Z" fill="#92E3A9"/>
<path d="M184.053 131.016V127.554H181.89C181.72 126.95 181.472 126.372 181.152 125.832L182.496 124.489L180.049 122.029L178.712 123.366C178.113 123.003 177.462 122.733 176.782 122.565V120.964H173.32V122.565C172.572 122.752 171.86 123.061 171.213 123.48L170.286 122.534L167.839 124.981L168.874 126.015C168.488 126.71 168.222 127.465 168.085 128.248H166.773V131.71H168.35C168.588 132.425 168.94 133.098 169.391 133.703L168.325 134.769L170.772 137.216L172.096 135.897C172.713 136.181 173.367 136.377 174.039 136.478V138.281H177.501V136.131C178.073 135.915 178.616 135.626 179.115 135.273L180.56 136.717L183.007 134.27L181.398 132.662C181.666 132.137 181.865 131.579 181.991 131.004L184.053 131.016ZM175.054 133.785C174.198 133.785 173.362 133.531 172.65 133.056C171.939 132.58 171.384 131.905 171.057 131.114C170.73 130.324 170.644 129.454 170.811 128.614C170.978 127.775 171.39 127.004 171.995 126.399C172.6 125.794 173.371 125.382 174.21 125.215C175.049 125.048 175.919 125.134 176.71 125.461C177.5 125.789 178.176 126.343 178.651 127.055C179.127 127.766 179.38 128.603 179.38 129.458C179.38 130.027 179.268 130.589 179.051 131.114C178.834 131.639 178.515 132.116 178.113 132.518C177.711 132.919 177.234 133.238 176.71 133.455C176.185 133.673 175.622 133.785 175.054 133.785Z" fill="#92E3A9"/>
<path d="M250.852 133.659H186.273V192.537H250.852V133.659Z" fill="#263238" stroke="#263238" stroke-linejoin="round"/>
<path d="M229.195 133.659H186.273V192.537H229.195V133.659Z" fill="white" stroke="#263238" stroke-linejoin="round"/>
<path d="M218.676 143.913L214.949 141.163C214.245 140.643 213.399 140.349 212.524 140.321C211.648 140.293 210.785 140.532 210.049 141.006L202.658 145.42C202.268 145.66 201.981 146.036 201.855 146.476C201.729 146.916 201.773 147.387 201.977 147.796C202.181 148.206 202.532 148.524 202.959 148.687C203.386 148.851 203.859 148.849 204.285 148.681L211.19 146.31L219.477 154.887L224.63 153.089V142.601L218.676 143.913Z" fill="#92E3A9"/>
<path d="M210.276 147.47L203.396 149.841C202.134 150.384 200.766 148.29 200.766 146.928C200.766 145.168 202.443 144.683 203.761 143.516L205.023 142.406C204.343 141.787 203.494 141.387 202.584 141.257C201.675 141.126 200.747 141.272 199.921 141.674C197.94 142.645 195.661 142.816 193.557 142.154L191.729 141.58V153.234L194.062 153.524L194.283 153.335C195.045 152.681 196.032 152.348 197.035 152.405C198.038 152.463 198.979 152.907 199.662 153.644L207.936 162.543C208.124 162.743 208.381 162.865 208.654 162.884C208.928 162.902 209.199 162.817 209.412 162.644C209.524 162.551 209.617 162.437 209.684 162.308C209.751 162.18 209.792 162.038 209.803 161.893C209.814 161.749 209.796 161.603 209.749 161.465C209.703 161.327 209.629 161.201 209.532 161.092L207.463 158.771L210.333 160.663C210.61 160.831 210.937 160.893 211.256 160.839C211.575 160.785 211.864 160.618 212.07 160.369C212.276 160.12 212.386 159.805 212.38 159.482C212.374 159.159 212.251 158.848 212.036 158.607L210.371 156.879L212.893 158.475C213.197 158.658 213.556 158.727 213.906 158.669C214.256 158.611 214.574 158.43 214.802 158.159C215.031 157.887 215.154 157.543 215.151 157.188C215.148 156.833 215.018 156.491 214.785 156.224L213.291 154.552L216.028 156.211C216.234 156.336 216.474 156.394 216.714 156.377C216.955 156.36 217.184 156.269 217.371 156.116C217.499 156.012 217.604 155.881 217.677 155.733C217.751 155.586 217.793 155.424 217.799 155.259C217.806 155.093 217.777 154.929 217.715 154.775C217.654 154.622 217.56 154.484 217.44 154.369L210.276 147.47Z" fill="#92E3A9"/>
<path d="M197.404 157.743L198.464 156.406C198.677 156.118 198.77 155.759 198.723 155.404C198.676 155.048 198.493 154.725 198.212 154.502C197.931 154.28 197.575 154.175 197.218 154.21C196.862 154.245 196.533 154.418 196.301 154.691L195.241 156.028C195.028 156.316 194.935 156.676 194.982 157.031C195.029 157.386 195.212 157.709 195.493 157.932C195.774 158.155 196.13 158.259 196.487 158.224C196.844 158.189 197.173 158.017 197.404 157.743Z" fill="#92E3A9"/>
<path d="M199.448 159.692L200.507 158.355C200.707 158.066 200.79 157.712 200.738 157.365C200.686 157.017 200.504 156.703 200.228 156.485C199.952 156.267 199.604 156.162 199.254 156.192C198.904 156.222 198.579 156.385 198.344 156.646L197.284 157.977C197.084 158.265 197.002 158.62 197.054 158.967C197.106 159.315 197.288 159.629 197.563 159.847C197.839 160.065 198.187 160.169 198.537 160.139C198.888 160.109 199.213 159.947 199.448 159.686V159.692Z" fill="#92E3A9"/>
<path d="M201.472 161.641L202.525 160.31C202.738 160.022 202.831 159.663 202.784 159.307C202.737 158.952 202.554 158.629 202.273 158.406C201.993 158.184 201.636 158.079 201.28 158.114C200.923 158.149 200.594 158.322 200.362 158.595L199.296 159.932C199.07 160.218 198.966 160.583 199.007 160.946C199.048 161.308 199.232 161.64 199.517 161.868C199.66 161.983 199.824 162.068 200 162.119C200.176 162.17 200.36 162.185 200.542 162.164C200.724 162.143 200.9 162.086 201.06 161.996C201.219 161.906 201.359 161.785 201.472 161.641Z" fill="#92E3A9"/>
<path d="M204.342 160.323C204.2 160.21 204.037 160.127 203.863 160.077C203.689 160.028 203.506 160.013 203.326 160.034C203.147 160.055 202.973 160.111 202.815 160.2C202.657 160.289 202.518 160.408 202.406 160.55L201.346 161.881C201.226 162.022 201.136 162.186 201.081 162.363C201.026 162.539 201.007 162.726 201.025 162.91C201.043 163.094 201.098 163.273 201.187 163.436C201.275 163.598 201.396 163.741 201.541 163.856C201.686 163.971 201.853 164.056 202.032 164.106C202.21 164.155 202.397 164.168 202.58 164.143C202.764 164.119 202.941 164.058 203.1 163.964C203.26 163.87 203.399 163.745 203.509 163.596L204.569 162.259C204.681 162.117 204.765 161.954 204.815 161.78C204.864 161.606 204.879 161.424 204.858 161.244C204.837 161.064 204.78 160.89 204.692 160.732C204.603 160.574 204.484 160.435 204.342 160.323Z" fill="#92E3A9"/>
<path d="M194.63 171.265H130.05V230.143H194.63V171.265Z" fill="#263238" stroke="#263238" stroke-linejoin="round"/>
<path d="M172.973 171.265H130.05V230.143H172.973V171.265Z" fill="white" stroke="#263238" stroke-linejoin="round"/>
<path d="M141.288 200.761H136.54V208.638H141.288V200.761Z" fill="#92E3A9"/>
<path d="M147.053 197.393H142.304V208.644H147.053V197.393Z" fill="#92E3A9"/>
<path d="M152.823 195.091H148.074V208.638H152.823V195.091Z" fill="#92E3A9"/>
<path d="M158.587 192.026H153.838V208.644H158.587V192.026Z" fill="#92E3A9"/>
<path d="M155.781 187.082L151.953 188.28L152.968 189.213L150.25 192.177L143.868 193.388L137.157 198.541C137.025 198.642 136.937 198.792 136.915 198.957C136.892 199.123 136.937 199.291 137.038 199.424C137.14 199.555 137.29 199.641 137.456 199.663C137.621 199.684 137.788 199.639 137.921 199.537L144.429 194.555L150.925 193.294L153.927 190.027L154.942 190.96L155.781 187.082Z" fill="#92E3A9"/>
<path d="M233.762 215.959H169.183V274.838H233.762V215.959Z" fill="#263238" stroke="#263238" stroke-linejoin="round"/>
<path d="M212.105 215.959H169.183V274.838H212.105V215.959Z" fill="white" stroke="#263238" stroke-linejoin="round"/>
<path d="M197.568 236.74L193.62 234.135V233.391C194.456 232.28 194.922 230.934 194.951 229.544C194.951 226.132 193.557 225.76 191.829 225.76C190.101 225.76 188.708 226.504 188.708 229.544C188.741 230.964 189.227 232.336 190.095 233.46V233.895L185.769 236.74C185.406 236.978 185.108 237.303 184.903 237.685C184.697 238.067 184.589 238.494 184.589 238.928V239.861L191.464 242.876L198.767 239.861V238.928C198.765 238.492 198.654 238.064 198.445 237.682C198.236 237.3 197.934 236.976 197.568 236.74Z" fill="#92E3A9"/>
<path d="M201.901 232.899C201.905 230.94 201.347 229.021 200.292 227.37C199.236 225.72 197.729 224.407 195.949 223.588C194.169 222.77 192.192 222.48 190.252 222.753C188.312 223.027 186.492 223.851 185.007 225.13C183.523 226.408 182.437 228.086 181.879 229.964C181.321 231.842 181.314 233.84 181.859 235.722C182.404 237.604 183.479 239.289 184.955 240.577C186.43 241.866 188.245 242.703 190.183 242.989V251.055C189.892 251.258 189.654 251.527 189.489 251.841C189.324 252.155 189.238 252.505 189.237 252.859V266.544C189.237 267.13 189.47 267.691 189.884 268.105C190.298 268.519 190.859 268.752 191.445 268.752C192.03 268.752 192.592 268.519 193.005 268.105C193.419 267.691 193.652 267.13 193.652 266.544V252.859C193.653 252.504 193.567 252.154 193.402 251.84C193.237 251.526 192.998 251.257 192.706 251.055V243.071C195.226 242.814 197.56 241.631 199.259 239.752C200.957 237.874 201.898 235.432 201.901 232.899ZM183.347 232.899C183.346 231.251 183.833 229.64 184.748 228.269C185.663 226.898 186.963 225.829 188.486 225.198C190.008 224.566 191.683 224.4 193.299 224.721C194.916 225.042 196.401 225.835 197.567 226.999C198.732 228.164 199.526 229.649 199.848 231.265C200.17 232.881 200.006 234.557 199.375 236.079C198.745 237.602 197.677 238.903 196.307 239.819C194.937 240.735 193.326 241.224 191.678 241.224C189.471 241.22 187.354 240.342 185.793 238.782C184.232 237.222 183.352 235.106 183.347 232.899Z" fill="#92E3A9"/>
<path d="M156.456 258.441H91.8765V317.319H156.456V258.441Z" fill="#263238" stroke="#263238" stroke-linejoin="round"/>
<path d="M134.799 258.441H91.8765V317.319H134.799V258.441Z" fill="white" stroke="#263238" stroke-linejoin="round"/>
<path d="M128.354 294.596C128.353 294.161 128.244 293.732 128.037 293.349C127.831 292.966 127.532 292.641 127.168 292.401L123.201 289.784V289.04C124.039 287.93 124.507 286.584 124.538 285.193C124.538 281.788 123.138 281.409 121.385 281.409C119.632 281.409 118.263 282.153 118.263 285.193C118.291 286.614 118.778 287.988 119.65 289.109V289.551L115.324 292.389C114.96 292.628 114.661 292.954 114.455 293.337C114.248 293.72 114.139 294.148 114.139 294.584V296.967C113.769 296.896 113.392 296.865 113.016 296.873C112.692 296.868 112.368 296.9 112.051 296.967V294.584C112.051 294.148 111.942 293.72 111.735 293.337C111.528 292.954 111.229 292.628 110.865 292.389L106.93 289.784V289.04C107.768 287.93 108.236 286.584 108.267 285.193C108.267 282.576 107.441 281.743 106.268 281.497L108.292 279.189H111.729L112.65 292.376H113.06L114.384 279.183H119.051L120.823 281.226L120.704 279.183H122.987V261.953H103.682V279.202H106.495L106.236 281.504C105.876 281.441 105.511 281.412 105.145 281.415C103.417 281.415 102.024 282.16 102.024 285.199C102.051 286.636 102.547 288.025 103.436 289.154V289.595L99.11 292.433C98.7461 292.672 98.4473 292.998 98.2404 293.381C98.0334 293.764 97.9248 294.192 97.9243 294.628V298.613H110.266C110.037 299.28 109.93 299.983 109.951 300.688C109.981 302.109 110.468 303.482 111.338 304.605V305.04L107.012 307.884C106.648 308.121 106.349 308.446 106.142 308.828C105.935 309.21 105.826 309.638 105.826 310.073V314.077H120.01V310.073C120.01 309.638 119.902 309.21 119.695 308.828C119.488 308.446 119.188 308.121 118.824 307.884L114.857 305.28V304.535C115.695 303.425 116.163 302.079 116.194 300.688C116.214 299.988 116.126 299.288 115.936 298.613H128.379L128.354 294.596ZM104.098 278.786V262.389H122.583V278.786H120.269L120.338 280.047L119.241 278.786H114.006L112.896 289.929L112.12 278.786H108.103L106.791 280.324L106.955 278.817L104.098 278.786Z" fill="#92E3A9"/>
<path d="M111.156 275.676H115.394V275.033H111.162L111.156 275.676Z" fill="#92E3A9"/>
<path d="M111.446 276.805H115.104C115.289 276.612 115.393 276.354 115.394 276.086H111.156C111.156 276.354 111.26 276.612 111.446 276.805Z" fill="#92E3A9"/>
<path d="M112.732 278.18H113.804C113.942 278.181 114.079 278.154 114.207 278.102C114.335 278.05 114.451 277.973 114.549 277.876C114.646 277.778 114.724 277.663 114.777 277.535C114.83 277.408 114.857 277.271 114.857 277.133H111.704C111.702 277.408 111.81 277.672 112.002 277.869C112.195 278.065 112.457 278.177 112.732 278.18Z" fill="#92E3A9"/>
<path d="M110.537 271.817C111.162 272.57 111.503 273.518 111.502 274.497V274.693H115.059V274.497C115.058 273.517 115.402 272.569 116.03 271.817C116.572 271.174 116.869 270.361 116.869 269.521C116.869 269.031 116.769 268.545 116.574 268.095C116.378 267.646 116.093 267.241 115.734 266.906C115.376 266.571 114.952 266.314 114.49 266.149C114.028 265.985 113.537 265.918 113.047 265.952C112.388 265.994 111.753 266.219 111.213 266.6C110.673 266.981 110.249 267.504 109.988 268.111C109.727 268.718 109.639 269.386 109.734 270.04C109.828 270.694 110.102 271.309 110.525 271.817H110.537Z" fill="#92E3A9"/>
<path d="M117.424 269.546C117.424 269.637 117.46 269.723 117.524 269.787C117.588 269.851 117.675 269.887 117.765 269.887H119.562C119.653 269.887 119.739 269.851 119.803 269.787C119.867 269.723 119.903 269.637 119.903 269.546C119.903 269.456 119.867 269.369 119.803 269.306C119.739 269.242 119.653 269.206 119.562 269.206H117.765C117.675 269.206 117.588 269.242 117.524 269.306C117.46 269.369 117.424 269.456 117.424 269.546Z" fill="#92E3A9"/>
<path d="M109.012 269.546C109.012 269.456 108.976 269.369 108.912 269.306C108.848 269.242 108.761 269.206 108.671 269.206H106.855C106.764 269.206 106.678 269.242 106.614 269.306C106.55 269.369 106.514 269.456 106.514 269.546C106.514 269.637 106.55 269.723 106.614 269.787C106.678 269.851 106.764 269.887 106.855 269.887H108.671C108.761 269.887 108.848 269.851 108.912 269.787C108.976 269.723 109.012 269.637 109.012 269.546Z" fill="#92E3A9"/>
<path d="M113.218 265.334C113.308 265.334 113.395 265.298 113.458 265.234C113.522 265.17 113.558 265.083 113.558 264.993V263.189C113.559 263.145 113.551 263.101 113.535 263.059C113.518 263.018 113.494 262.981 113.463 262.949C113.431 262.917 113.394 262.892 113.353 262.875C113.312 262.858 113.268 262.849 113.224 262.849C113.135 262.85 113.05 262.887 112.987 262.951C112.925 263.014 112.89 263.1 112.89 263.189V264.987C112.89 265.075 112.923 265.161 112.984 265.225C113.045 265.29 113.129 265.329 113.218 265.334Z" fill="#92E3A9"/>
<path d="M116.466 266.633C116.556 266.631 116.642 266.595 116.705 266.532L117.967 265.27C117.999 265.239 118.024 265.202 118.042 265.161C118.059 265.12 118.068 265.076 118.068 265.031C118.068 264.986 118.059 264.942 118.042 264.901C118.024 264.86 117.999 264.822 117.967 264.791C117.902 264.728 117.815 264.692 117.724 264.692C117.633 264.692 117.546 264.728 117.481 264.791L116.22 266.052C116.157 266.116 116.121 266.202 116.121 266.292C116.121 266.382 116.157 266.468 116.22 266.532C116.286 266.595 116.374 266.631 116.466 266.633Z" fill="#92E3A9"/>
<path d="M109.743 272.542L108.482 273.803C108.419 273.867 108.383 273.953 108.383 274.043C108.383 274.133 108.419 274.219 108.482 274.283C108.513 274.315 108.55 274.34 108.591 274.357C108.633 274.375 108.677 274.384 108.722 274.384C108.766 274.384 108.81 274.375 108.852 274.357C108.893 274.34 108.93 274.315 108.961 274.283L110.222 273.021C110.276 272.956 110.304 272.873 110.299 272.788C110.295 272.704 110.26 272.624 110.2 272.564C110.14 272.505 110.06 272.469 109.976 272.465C109.892 272.461 109.809 272.488 109.743 272.542Z" fill="#92E3A9"/>
<path d="M109.68 266.494C109.712 266.526 109.75 266.552 109.792 266.569C109.835 266.587 109.88 266.595 109.926 266.595C109.993 266.594 110.058 266.574 110.114 266.537C110.169 266.499 110.213 266.446 110.238 266.384C110.264 266.322 110.27 266.254 110.257 266.188C110.245 266.123 110.212 266.062 110.165 266.015L108.961 264.81C108.931 264.773 108.893 264.743 108.851 264.722C108.808 264.701 108.762 264.688 108.714 264.686C108.667 264.684 108.619 264.691 108.575 264.708C108.531 264.725 108.49 264.752 108.457 264.785C108.423 264.819 108.397 264.859 108.38 264.904C108.363 264.948 108.355 264.995 108.357 265.043C108.36 265.09 108.372 265.137 108.393 265.179C108.415 265.222 108.445 265.259 108.481 265.289L109.68 266.494Z" fill="#92E3A9"/>
<path d="M116.737 272.599C116.672 272.535 116.585 272.5 116.494 272.5C116.403 272.5 116.316 272.535 116.251 272.599C116.188 272.662 116.153 272.749 116.153 272.838C116.153 272.928 116.188 273.014 116.251 273.078L117.45 274.276C117.481 274.308 117.518 274.334 117.559 274.351C117.6 274.368 117.645 274.377 117.689 274.377C117.734 274.377 117.778 274.368 117.819 274.351C117.861 274.334 117.898 274.308 117.929 274.276C117.992 274.212 118.028 274.126 118.028 274.037C118.028 273.947 117.992 273.861 117.929 273.797L116.737 272.599Z" fill="#92E3A9"/>
<path d="M138.905 125.775C138.905 125.775 140.967 128.14 140.658 128.967C140.447 129.774 140.343 130.605 140.349 131.439C140.349 131.439 143.023 132.883 143.023 133.602C142.925 134.285 142.712 134.946 142.393 135.557C142.393 135.557 143.023 139.675 142.601 140.703C142.178 141.731 137.757 142.456 137.757 142.456L136.111 147.502L126.651 144.62L128.196 139.574C128.196 139.574 125.831 133.602 125.415 131.647C124.999 129.692 127.988 125.876 131.722 124.949C134.143 124.453 136.66 124.742 138.905 125.775Z" fill="white" stroke="#263238" stroke-linejoin="round"/>
<path d="M135.714 135.147C135.714 135.147 137.36 135.248 137.158 134.422C136.956 133.596 136.332 133.16 136.641 132.776C136.95 132.391 138.905 131.13 138.287 130.304C137.669 129.477 135.814 128.866 136.641 127.939C137.467 127.012 142.203 124.949 142.203 124.949C142.203 124.949 137.36 122.685 136.641 122.685C135.922 122.685 139.523 121.556 138.287 120.629C137.051 119.702 129.123 119.702 125.932 123.921C122.741 128.14 123.151 130.613 124.387 134.113C125.623 137.613 127.988 141.737 129.224 142.046C130.46 142.355 134.578 142.557 134.786 141.119C134.995 139.681 135.714 135.147 135.714 135.147Z" fill="#263238" stroke="#263238" stroke-linejoin="round"/>
<path d="M137.051 136.074C137.051 136.074 134.137 132.473 133.96 133.848C133.784 135.223 134.818 140.154 136.704 138.988" fill="white"/>
<path d="M137.051 136.074C137.051 136.074 134.137 132.473 133.96 133.848C133.784 135.223 134.818 140.154 136.704 138.988" stroke="#263238" stroke-linejoin="round"/>
<path d="M120.887 146.574C120.887 146.574 123.151 147.293 128.606 148.429C134.061 149.564 138.696 150.693 138.696 150.693C138.696 150.693 137.259 146.366 135.713 145.547C134.168 144.727 125.932 143.074 124.904 143.175C123.876 143.276 120.887 146.574 120.887 146.574Z" fill="white" stroke="#263238" stroke-linejoin="round"/>
<path d="M155.781 175.301C155.781 175.301 165.153 166.863 165.664 166.346C166.174 165.828 165.033 161.818 165.033 161.199C165.033 160.581 167.196 159.547 167.196 159.547C167.196 159.547 167.505 157.901 168.533 157.901C169.561 157.901 171.314 159.238 171.314 159.238L171.522 160.373C171.522 160.373 172.96 163.564 172.96 164.082C172.817 165.176 172.311 166.191 171.522 166.964C170.494 167.992 168.123 170.155 168.123 170.155C168.123 170.155 159.887 181.273 158.033 182.818C156.179 184.364 153.706 186.009 152.779 184.162C151.852 182.314 155.781 175.301 155.781 175.301Z" fill="white" stroke="#263238" stroke-linejoin="round"/>
<path d="M167.221 159.547L167.53 160.373L166.704 160.991" stroke="#263238" stroke-linejoin="round"/>
<path d="M96.5876 163.255C96.5876 163.255 92.9802 166.964 93.1884 168.509C93.3965 170.054 101.734 187.246 101.734 187.246C101.734 187.246 102.364 189.825 102.762 190.027C103.159 190.229 104.099 191.78 104.099 191.78C104.099 191.78 104.099 193.117 105.644 191.673C107.189 190.229 109.352 188.589 109.251 187.258C109.13 186.37 108.733 185.543 108.116 184.893C108.116 184.893 107.605 183.632 107.088 183.556C106.571 183.481 104.206 183.449 104.206 183.449L101.545 169.436L96.5876 163.255Z" fill="white" stroke="#263238" stroke-linejoin="round"/>
<path d="M105.026 185.909L106.369 186.628C106.369 186.628 104.717 189.1 105.335 189.617C105.953 190.134 107.807 186.426 108.015 185.909C108.223 185.391 107.706 184.881 107.706 184.881" fill="white"/>
<path d="M105.026 185.909L106.369 186.628C106.369 186.628 104.717 189.1 105.335 189.617C105.953 190.134 107.807 186.426 108.015 185.909C108.223 185.391 107.706 184.881 107.706 184.881" stroke="#263238" stroke-linejoin="round"/>
<path d="M105.852 186.836L103.172 189.207" stroke="#263238" stroke-linejoin="round"/>
<path d="M110.248 238.77L103.569 244.56C103.824 245.236 104.294 245.809 104.906 246.193C105.795 246.641 109.655 250.356 110.84 251.093C112.978 252.451 115.436 253.219 117.967 253.32C121.12 253.32 121.681 252.134 121.681 251.686C121.681 251.238 115.595 247.234 115.595 247.234L114.258 241.892L110.248 238.77Z" fill="white" stroke="#263238" stroke-linejoin="round"/>
<path d="M104.912 243.399L103.569 244.56C103.824 245.236 104.294 245.809 104.906 246.193C105.795 246.641 109.655 250.356 110.84 251.093C112.978 252.451 115.436 253.219 117.967 253.32C119.796 253.32 120.748 252.916 121.234 252.487C119.887 252.165 118.519 251.942 117.141 251.819C115.097 251.819 112.846 249.983 112.846 249.983L104.912 243.399Z" fill="white" stroke="#263238" stroke-linejoin="round"/>
<path d="M108.116 180.964C108.116 180.964 106.666 188.532 107.971 190.922C109.019 192.735 110.182 194.48 111.452 196.144L129.956 219.87L109.932 239.243L114.555 243.967C114.555 243.967 139.781 223.155 141.276 222.266C142.771 221.377 141.276 213.992 140.841 213.342C140.406 212.693 131.709 193.666 131.709 193.666L132.523 185.19L108.116 180.964Z" fill="#263238" stroke="#263238" stroke-linejoin="round"/>
<path d="M121.536 249.063C121.536 249.063 126.033 254.07 126.752 254.581C127.471 255.092 132.573 258.056 132.573 258.056C132.573 258.056 132.472 258.768 132.062 258.876C131.652 258.983 121.537 259.077 120.824 258.977C120.111 258.876 114.158 255.729 113.464 255.394C112.444 254.836 111.455 254.223 110.5 253.559L114.997 246.3L121.536 249.063Z" fill="white" stroke="#263238" stroke-linejoin="round"/>
<path d="M113.924 194.555L118.213 197.626L124.349 217.706L113.924 247.145L122.993 249.668L123.58 246.376L125.383 242.92C125.383 242.92 136.458 218.627 136.609 216.634C136.76 214.641 131.709 193.64 131.709 193.64L130.788 184.748L114.839 183.209" fill="#263238"/>
<path d="M113.924 194.555L118.213 197.626L124.349 217.706L113.924 247.145L122.993 249.668L123.58 246.376L125.383 242.92C125.383 242.92 136.458 218.627 136.609 216.634C136.76 214.641 131.709 193.64 131.709 193.64L130.788 184.748L114.839 183.209" stroke="#263238" stroke-linejoin="round"/>
<path d="M132.062 258.882C132.472 258.775 132.573 258.062 132.573 258.062L131.671 257.532C127.78 257.236 121.253 256.731 120.824 256.731C120.395 256.731 114.032 253.011 111.705 251.617L110.5 253.566C111.455 254.23 112.444 254.842 113.464 255.401C114.177 255.71 120.105 258.882 120.824 258.983C121.543 259.084 131.652 258.977 132.062 258.882Z" fill="white" stroke="#263238" stroke-linejoin="round"/>
<path d="M122.224 146.266C122.224 146.266 112.032 147.293 111.925 147.71C111.818 148.126 98.3345 162.738 98.3345 162.738L101.942 169.638L110.588 165.936L108.116 180.964C108.116 180.964 106.47 181.595 109.453 183.127C112.436 184.66 119.342 186.628 124.078 186.628C128.814 186.628 131.488 186.628 132.522 185.19C133.194 184.3 133.555 183.214 133.55 182.099C133.651 181.273 138.495 168.711 138.495 168.711C138.495 168.711 149.304 182.585 149.714 182.926C150.124 183.266 152.085 183.556 153.731 181.582C155.377 179.608 155.068 175.099 155.068 175.099C155.068 175.099 148.995 164.082 148.686 162.536C148.377 160.991 147.425 156.23 146.832 155.019C146.239 153.808 145.394 153.682 143.742 152.856C142.089 152.03 137.568 150.491 137.568 150.491L122.224 146.266Z" fill="white" stroke="#263238" stroke-linejoin="round"/>
<path d="M112.96 150.8L110.588 165.936L111.616 151.62" stroke="#263238" stroke-linejoin="round"/>
<path d="M110.279 165.52L107.605 158.929" stroke="#263238" stroke-linejoin="round"/>
<path d="M103.632 161.742L102.043 160.783" stroke="#263238" stroke-linejoin="round"/>
<path d="M110.588 165.936L104.976 162.555" stroke="#263238" stroke-linejoin="round"/>
<path d="M143.313 161.218L145.905 157.182" stroke="#263238" stroke-linejoin="round"/>
<path d="M138.495 168.711L142.493 162.492" stroke="#263238" stroke-linejoin="round"/>
<path d="M146.29 163.754L147.45 163.047" stroke="#263238" stroke-linejoin="round"/>
<path d="M139.113 168.099L144.883 164.605" stroke="#263238" stroke-linejoin="round"/>
<path d="M138.596 167.992L148.686 166.245" stroke="#263238" stroke-linejoin="round"/>
<path d="M109.453 181.38L119.55 178.908" stroke="#263238" stroke-linejoin="round"/>
<path d="M126.43 175.471C127.08 175.218 127.713 174.921 128.322 174.582" stroke="#263238" stroke-linejoin="round"/>
<path d="M113.679 178.908C117.467 178.189 121.208 177.237 124.879 176.058" stroke="#263238" stroke-linejoin="round"/>
<path d="M154.967 174.374C154.761 176.046 153.999 177.6 152.804 178.789C151.629 180.055 150.084 180.918 148.39 181.254C148.39 181.254 149.317 184.761 150.452 184.761C151.587 184.761 153.542 185.391 155.289 183.008C157.036 180.624 157.452 176.625 156.935 175.591C156.418 174.557 156.103 174.065 154.967 174.374Z" fill="white" stroke="#263238" stroke-linejoin="round"/>
<path d="M99.8796 160.373C99.8796 160.373 104.824 169.638 104.408 169.833C103.992 170.029 102.251 171.586 101.633 171.687C101.015 171.788 98.2336 169.007 97.2183 166.642C96.2029 164.277 95.8813 163.344 96.1903 162.934C96.4993 162.524 99.2616 160.373 99.8796 160.373Z" fill="white" stroke="#263238" stroke-linejoin="round"/>
<path d="M325.068 111.365C325.623 108.212 326.424 100.423 321.675 96.5949C315.653 91.7388 311.377 100.48 306.13 93.6812C300.883 86.8828 299.331 72.1128 283.804 72.302C268.278 72.4912 267.092 81.2447 267.092 84.1583C267.092 87.072 262.431 89.2036 261.46 89.2036C260.489 89.2036 255.046 86.681 253.104 92.3127C251.162 97.9445 252.473 101.205 249.389 101.325C246.306 101.445 242.452 97.2318 238.265 99.3382C234.077 101.445 234.058 105.916 232.311 107.467C230.564 109.019 227.644 106.307 223.76 107.858C221.407 108.798 220.695 110.312 220.499 111.359L325.068 111.365Z" fill="white" stroke="black" stroke-miterlimit="10"/>
<path d="M154.942 50.4246C155.276 48.5326 155.756 43.809 152.886 41.4945C149.247 38.5556 146.661 43.8405 143.483 39.7286C140.304 35.6167 139.384 26.6866 129.968 26.8001C120.552 26.9137 119.877 32.2049 119.877 33.9707C119.877 35.7366 117.052 37.0294 116.466 37.0294C115.879 37.0294 112.587 35.4969 111.42 38.9214C110.254 42.3458 111.042 44.3009 109.175 44.3703C107.308 44.4396 104.988 41.8981 102.446 43.172C99.9046 44.4459 99.9235 47.1451 98.8451 48.0848C97.7666 49.0245 96.026 47.3785 93.6737 48.3245C93.1868 48.4698 92.7473 48.7421 92.4004 49.1133C92.0535 49.4846 91.8117 49.9415 91.6997 50.4372L154.942 50.4246Z" fill="white" stroke="black" stroke-miterlimit="10"/>
<path d="M105.013 75.6508C105.215 74.5093 105.505 71.684 103.752 70.2965C101.57 68.5307 100.018 71.7029 98.1138 69.237C96.2092 66.7712 95.6794 61.4169 90.0414 61.4863C84.4033 61.5556 83.9808 64.7278 83.9808 65.7873C83.9808 66.8468 82.2906 67.6163 81.9374 67.6163C81.5843 67.6163 79.6166 66.7018 78.9103 68.7451C78.2039 70.7885 78.6832 71.9678 77.5607 72.0119C76.4381 72.0561 75.038 70.5299 73.5245 71.293C72.0109 72.0561 72.0046 73.6769 71.3676 74.2445C70.7306 74.812 69.6774 73.8156 68.2711 74.3832C67.9791 74.4688 67.7152 74.6309 67.5068 74.8526C67.2983 75.0744 67.1529 75.3478 67.0854 75.6445L105.013 75.6508Z" fill="white" stroke="black" stroke-miterlimit="10"/>
<path d="M303.67 185.385C303.872 184.244 304.162 181.418 302.44 180.031C300.258 178.265 298.707 181.437 296.802 178.971C294.897 176.506 294.336 171.151 288.698 171.221C283.06 171.29 282.637 174.462 282.637 175.522C282.637 176.581 280.947 177.351 280.594 177.351C280.241 177.351 278.273 176.436 277.567 178.48C276.861 180.523 277.34 181.702 276.217 181.746C275.095 181.791 273.695 180.264 272.181 181.027C270.668 181.791 270.661 183.411 270.024 183.979C269.387 184.546 268.334 183.55 266.928 184.118C266.636 184.203 266.372 184.365 266.164 184.587C265.955 184.809 265.81 185.082 265.742 185.379L303.67 185.385Z" fill="white" stroke="black" stroke-miterlimit="10"/>
<path d="M285.923 79.5294C286.1 78.5329 286.352 76.0671 284.851 74.8562C282.959 73.3174 281.591 76.1175 279.926 73.9291C278.261 71.7408 277.775 67.0991 272.85 67.1622C267.924 67.2253 267.559 69.9938 267.559 70.9461C267.559 71.8984 266.083 72.548 265.774 72.548C265.465 72.548 263.743 71.7471 263.131 73.5318C262.52 75.3166 262.93 76.3509 261.952 76.3887C260.975 76.4265 259.764 75.0896 258.433 75.7581C257.102 76.4265 257.102 77.8392 256.541 78.3311C255.98 78.823 255.065 77.9654 253.829 78.4573C253.575 78.5324 253.345 78.6744 253.164 78.8685C252.984 79.0627 252.858 79.3018 252.801 79.5609L285.923 79.5294Z" fill="white" stroke="black" stroke-miterlimit="10"/>
<rect x="12.5" y="12.5" width="342" height="316" rx="4.5" stroke="black" stroke-opacity="0.15"/>
</g>
<defs>
<filter id="filter0_dd_133_304" x="0" y="0" width="367" height="341" filterUnits="userSpaceOnUse" color-interpolation-filters="sRGB">
<feFlood flood-opacity="0" result="BackgroundImageFix"/>
<feColorMatrix in="SourceAlpha" type="matrix" values="0 0 0 0 0 0 0 0 0 0 0 0 0 0 0 0 0 0 127 0" result="hardAlpha"/>
<feOffset dx="4" dy="4"/>
<feGaussianBlur stdDeviation="4"/>
<feComposite in2="hardAlpha" operator="out"/>
<feColorMatrix type="matrix" values="0 0 0 0 0 0 0 0 0 0 0 0 0 0 0 0 0 0 0.05 0"/>
<feBlend mode="normal" in2="BackgroundImageFix" result="effect1_dropShadow_133_304"/>
<feColorMatrix in="SourceAlpha" type="matrix" values="0 0 0 0 0 0 0 0 0 0 0 0 0 0 0 0 0 0 127 0" result="hardAlpha"/>
<feOffset dx="-4" dy="-4"/>
<feGaussianBlur stdDeviation="4"/>
<feComposite in2="hardAlpha" operator="out"/>
<feColorMatrix type="matrix" values="0 0 0 0 0 0 0 0 0 0 0 0 0 0 0 0 0 0 0.05 0"/>
<feBlend mode="normal" in2="effect1_dropShadow_133_304" result="effect2_dropShadow_133_304"/>
<feBlend mode="normal" in="SourceGraphic" in2="effect2_dropShadow_133_304" result="shape"/>
</filter>
</defs>
</svg>
