<svg width="26" height="26" viewBox="0 0 26 26" fill="none" xmlns="http://www.w3.org/2000/svg">
<path d="M6.09067 25V21.5717C5.69333 17.9994 1 16.0867 1 10.6005C1 5.11666 4.636 0.933601 11.9093 1.0008C17.1453 1.0512 22.0907 3.74391 22.0907 9.23012L25 13.3436C25 16.0867 22.0907 16.0867 22.0907 16.0867C22.0907 16.0867 22.8187 22.9433 16.272 22.9433V25" stroke="#263238" stroke-width="1.5" stroke-linecap="round" stroke-linejoin="round"/>
<path d="M11.6667 13C12.3739 13 13.0522 12.7472 13.5523 12.2971C14.0524 11.847 14.3333 11.2366 14.3333 10.6001C14.3333 9.96362 14.0524 9.35319 13.5523 8.90312C13.0522 8.45304 12.3739 8.2002 11.6667 8.2002C10.9594 8.2002 10.2812 8.45304 9.78106 8.90312C9.28096 9.35319 9.00001 9.96362 9.00001 10.6001C9.00001 11.2366 9.28096 11.847 9.78106 12.2971C10.2812 12.7472 10.9594 13 11.6667 13Z" stroke="#263238" stroke-width="1.5" stroke-linecap="round" stroke-linejoin="round"/>
<path d="M11.6666 14.2002C12.7275 14.2002 13.7449 13.821 14.4951 13.1459C15.2452 12.4708 15.6666 11.5551 15.6666 10.6004C15.6666 9.64562 15.2452 8.72998 14.4951 8.05487C13.7449 7.37976 12.7275 7.00049 11.6666 7.00049C10.6058 7.00049 9.58837 7.37976 8.83822 8.05487C8.08808 8.72998 7.66665 9.64562 7.66665 10.6004C7.66665 11.5551 8.08808 12.4708 8.83822 13.1459C9.58837 13.821 10.6058 14.2002 11.6666 14.2002Z" stroke="#263238" stroke-width="1.5" stroke-linecap="round" stroke-linejoin="round"/>
</svg>
