<svg width="24" height="24" viewBox="0 0 24 24" fill="none" xmlns="http://www.w3.org/2000/svg">
<path d="M3 0C2.20435 0 1.44129 0.30102 0.87868 0.836838C0.316071 1.37266 0 2.09938 0 2.85714V20C0 20.7578 0.316071 21.4845 0.87868 22.0203C1.44129 22.5561 2.20435 22.8571 3 22.8571H11.772C11.2575 22.3471 10.822 21.7699 10.4784 21.1429H3C2.68174 21.1429 2.37652 21.0225 2.15147 20.8081C1.92643 20.5938 1.8 20.3031 1.8 20H9.9756C9.78734 19.4438 9.66892 18.8684 9.6228 18.2857H1.8V2.85714C1.8 2.55404 1.92643 2.26335 2.15147 2.04902C2.37652 1.83469 2.68174 1.71429 3 1.71429H16.8C17.1183 1.71429 17.4235 1.83469 17.6485 2.04902C17.8736 2.26335 18 2.55404 18 2.85714V10.3074C18.624 10.3531 19.2264 10.4674 19.8 10.6434V2.85714C19.8 2.09938 19.4839 1.37266 18.9213 0.836838C18.3587 0.30102 17.5956 0 16.8 0H3ZM24 17.7143C24 16.0472 23.3046 14.4484 22.0669 13.2696C20.8292 12.0908 19.1504 11.4286 17.4 11.4286C15.6496 11.4286 13.9708 12.0908 12.7331 13.2696C11.4954 14.4484 10.8 16.0472 10.8 17.7143C10.8 19.3814 11.4954 20.9802 12.7331 22.159C13.9708 23.3378 15.6496 24 17.4 24C19.1504 24 20.8292 23.3378 22.0669 22.159C23.3046 20.9802 24 19.3814 24 17.7143ZM16.6968 14.968L20.064 17.0709C20.1683 17.1346 20.2539 17.2227 20.3127 17.3266C20.3715 17.4306 20.4015 17.5471 20.4 17.6651C20.4001 17.784 20.3705 17.9011 20.3136 18.0069C20.2599 18.1115 20.1779 18.2007 20.076 18.2651L16.7076 20.4537C16.649 20.4913 16.5852 20.5209 16.518 20.5417C16.362 20.5891 16.1931 20.5798 16.044 20.5154C15.958 20.4771 15.8797 20.4249 15.8124 20.3611C15.7474 20.2937 15.6947 20.2165 15.6564 20.1326C15.6189 20.0467 15.5997 19.9547 15.6 19.8617V15.5669C15.5994 15.4293 15.6407 15.2946 15.7188 15.179C15.797 15.0634 15.9087 14.9718 16.0404 14.9154C16.145 14.8687 16.2606 14.8489 16.3758 14.8579C16.4909 14.867 16.6016 14.9045 16.6968 14.9669V14.968ZM3.6 4.57143C3.6 4.26832 3.72643 3.97763 3.95147 3.76331C4.17652 3.54898 4.48174 3.42857 4.8 3.42857H14.4C14.7183 3.42857 15.0235 3.54898 15.2485 3.76331C15.4736 3.97763 15.6 4.26832 15.6 4.57143V6.85714C15.6 7.16025 15.4736 7.45094 15.2485 7.66527C15.0235 7.87959 14.7183 8 14.4 8H4.8C4.48174 8 4.17652 7.87959 3.95147 7.66527C3.72643 7.45094 3.6 7.16025 3.6 6.85714V4.57143ZM5.4 6.28571H13.8V5.14286H5.4V6.28571Z" fill="#263238"/>
</svg>
