<svg width="320" height="136" viewBox="0 0 320 136" fill="none" xmlns="http://www.w3.org/2000/svg">
<path fill-rule="evenodd" clip-rule="evenodd" d="M131.5 2.27538C112.681 6.33938 95.996 12.9874 53.767 33.2474C31.422 43.9674 6.351 53.8564 1.517 53.8564C0.683 53.8564 0 54.3064 0 54.8564C0 56.1044 3.179 56.1064 14 54.8654C29.88 53.0434 41.565 49.3964 76.5 35.3554C107 23.0974 108.864 22.4054 120.5 19.0154C142.504 12.6054 161.995 11.6704 179.277 16.1954C198.634 21.2634 214.449 30.6674 232.153 47.6374C243.236 58.2604 243.629 57.0304 233.523 43.3514C218.125 22.5084 199.791 8.81838 178.5 2.26438C168.678 -0.759622 145.528 -0.753623 131.5 2.27538Z" fill="url(#paint0_linear_8_20)"/>
<path fill-rule="evenodd" clip-rule="evenodd" d="M149.73 27.1443C139.385 30.5123 128.356 40.3293 123.844 50.1863C114.166 71.3253 123.36 95.8503 144.714 105.859C151.448 109.016 152.63 109.246 161.944 109.213C175.059 109.166 181.104 106.868 190 98.5473C204.223 85.2423 208.135 65.9003 199.975 49.2223C196.238 41.5833 188.207 33.7293 180.023 29.7063C173.822 26.6593 172.104 26.2773 163.523 26.0383C157.419 25.8683 152.415 26.2693 149.73 27.1443ZM158.194 32.4103C160.375 33.2903 159.558 34.6493 155.648 36.6443C150.563 39.2383 136.435 53.0363 132.558 59.1943C126.634 68.6023 128.814 74.1793 144.181 88.9253C152.659 97.0613 160.1 102.012 165.582 103.165C166.881 103.439 169.069 103.94 170.444 104.279C172.854 104.874 172.874 104.84 171.003 103.322C169.935 102.456 168.499 101.748 167.812 101.748C167.124 101.748 166.238 101.186 165.843 100.498C165.447 99.8113 165.468 99.5583 165.89 99.9383C166.764 100.724 166.428 100.962 176.47 92.4103C193.626 77.7993 198.063 68.0443 191.605 59.1293C186.193 51.6583 177.154 42.6803 170.911 38.5763C167.461 36.3083 164.257 34.4653 163.791 34.4823C163.325 34.4983 162.056 33.8893 160.971 33.1303C159.887 32.3703 158.537 31.7843 157.971 31.8273C157.406 31.8703 157.507 32.1333 158.194 32.4103Z" fill="url(#paint1_linear_8_20)"/>
<path fill-rule="evenodd" clip-rule="evenodd" d="M188.298 132.735C207.117 128.671 223.802 122.023 266.031 101.763C288.376 91.0428 313.447 81.1538 318.281 81.1538C319.115 81.1538 319.798 80.7038 319.798 80.1538C319.798 78.9058 316.619 78.9038 305.798 80.1448C289.918 81.9668 278.233 85.6138 243.298 99.6548C212.798 111.913 210.934 112.605 199.298 115.995C177.294 122.405 157.803 123.34 140.521 118.815C121.164 113.747 105.349 104.343 87.6446 87.3728C76.5616 76.7498 76.1686 77.9798 86.2746 91.6588C101.673 112.502 120.007 126.192 141.298 132.746C151.12 135.77 174.27 135.764 188.298 132.735Z" fill="url(#paint2_linear_8_20)"/>
<defs>
<linearGradient id="paint0_linear_8_20" x1="-62" y1="28" x2="240.798" y2="27.8971" gradientUnits="userSpaceOnUse">
<stop stop-color="#FF512F"/>
<stop offset="1" stop-color="#F09819"/>
</linearGradient>
<linearGradient id="paint1_linear_8_20" x1="66.5" y1="68" x2="204.182" y2="67.608" gradientUnits="userSpaceOnUse">
<stop stop-color="#FF512F"/>
<stop offset="1" stop-color="#F09819"/>
</linearGradient>
<linearGradient id="paint2_linear_8_20" x1="381" y1="107.216" x2="79" y2="107.113" gradientUnits="userSpaceOnUse">
<stop stop-color="#FF512F"/>
<stop offset="1" stop-color="#F09819"/>
</linearGradient>
</defs>
</svg>
